<svg width="396" height="396" viewBox="0 0 396 396" fill="none" xmlns="http://www.w3.org/2000/svg">
<g clip-path="url(#clip0_3_73)">
<path d="M338.129 34.7479C350.461 37.2298 360.068 46.9271 362.39 59.2406C364.055 68.1959 361.685 77.471 354.638 83.9188C348.796 90.9532 340.07 95.0042 330.942 95.0042C328.298 95.0042 325.656 94.6044 323.094 93.8848L227.449 189.45L207.078 167.529L260.39 114.284L260.39 85.7675C260.39 78.7312 263.914 72.8303 269.839 69.0723C323.555 34.3748 323.478 32.0294 338.129 34.7479Z" fill="black"/>
<path d="M262.092 290.161L221.386 235.542L243.453 170.907C245.276 165.537 243.868 159.668 239.866 155.666C235.887 151.687 230.039 150.312 224.692 152.138L160.012 174.187L105.43 133.499C95.982 125.781 81.5993 133.251 81.7512 145.605L82.5681 213.801L27.1701 253.645C23.6423 256.15 21.3241 260.101 20.9829 264.421C20.164 268.401 21.7361 272.705 24.806 275.775C26.5105 277.479 28.5793 278.678 30.9133 279.418L96.0402 299.583L116.196 364.7C116.934 367.032 118.113 369.062 119.817 370.766C122.886 373.835 127.177 375.413 131.554 375.01C135.877 374.666 139.862 372.409 142.368 368.879L181.849 313.117L250.057 313.946C262.352 314.004 269.822 299.621 262.092 290.161ZM165.994 282.021L136.049 324.354L120.722 274.882L71.3094 259.615L113.643 229.67L113.015 177.779L154.511 208.694L203.604 192.001L186.91 241.094L217.885 282.649L165.994 282.021Z" fill="black"/>
<path d="M142.326 216.122C145.374 213.073 150.311 213.073 153.359 216.122L179.026 241.788C182.074 244.837 182.074 249.773 179.026 252.822L173.539 258.309C170.49 261.358 165.553 261.358 162.505 258.309L136.78 232.643C133.732 229.594 133.732 224.658 136.78 221.609L142.326 216.122Z" fill="black"/>
<path d="M116.335 243.113C119.383 240.064 124.32 240.064 127.368 243.113L153.035 268.78C156.083 271.828 156.083 276.765 153.035 279.813L147.547 285.301C144.499 288.349 139.562 288.349 136.514 285.301L110.789 259.634C107.74 256.585 107.74 251.649 110.789 248.6L116.335 243.113Z" fill="black"/>
<path d="M254.928 220.51L284.937 212.308C290.791 210.742 296.848 214.174 298.446 220.038C300.044 225.901 296.593 231.946 290.732 233.548L260.724 241.749C257.792 242.549 254.8 242.078 252.373 240.692C249.946 239.306 248.002 236.982 247.214 234.02C245.616 228.156 249.067 222.112 254.928 220.51Z" fill="black"/>
<path d="M268.931 177.837L298.94 169.636C304.794 168.07 310.851 171.502 312.449 177.365C314.047 183.229 310.596 189.274 304.735 190.875L274.726 199.077C271.795 199.877 268.803 199.406 266.376 198.02C263.949 196.634 262.005 194.31 261.217 191.347C259.619 185.484 263.07 179.439 268.931 177.837Z" fill="black"/>
</g>
<defs>
<clipPath id="clip0_3_73">
<rect width="396" height="396" fill="white"/>
</clipPath>
</defs>
</svg>
